<svg width="1122" height="468" viewBox="0 0 1122 468" fill="none" xmlns="http://www.w3.org/2000/svg">
<g clip-path="url(#clip0_57_4)">
<rect width="1122" height="468" rx="234" fill="white"/>
<path d="M294.856 228.584V275.432C280.008 296.424 260.68 306.92 236.872 306.92C217.672 306.92 200.904 299.88 186.568 285.8C173.256 271.976 166.6 254.952 166.6 234.728C166.6 214.504 173.384 197.352 186.952 183.272C200.52 169.192 217.16 162.152 236.872 162.152C253 162.152 267.08 167.016 279.112 176.744V200.936H278.344C276.808 197.864 275.016 195.304 272.968 193.256C263.24 180.2 251.08 173.672 236.488 173.672C222.152 173.672 210.248 179.816 200.776 192.104C191.56 204.136 186.952 218.216 186.952 234.344C186.952 250.216 191.304 264.04 200.008 275.816C209.992 288.616 222.664 295.016 238.024 295.016C253.384 295.016 266.184 287.08 276.424 271.208V240.104H271.048C260.808 240.104 251.336 241 242.632 242.792V228.584H294.856ZM439.538 164.072C437.49 171.496 436.466 180.712 436.466 191.72V276.968C436.466 286.952 437.49 296.296 439.538 305H414.962C415.73 302.184 416.242 299.496 416.498 296.936C416.754 294.12 417.138 291.304 417.65 288.488C406.13 300.776 392.818 306.92 377.714 306.92C362.866 306.92 350.706 301.544 341.234 290.792C331.762 279.784 327.026 264.424 327.026 244.712V191.72C327.026 182.76 326.258 173.544 324.722 164.072H348.914C346.866 173.288 345.842 182.504 345.842 191.72V244.712C345.842 259.048 348.146 269.672 352.754 276.584C359.41 287.336 368.882 292.712 381.17 292.712C393.458 292.712 403.186 287.848 410.354 278.12C415.474 270.44 418.034 259.304 418.034 244.712V191.72C418.034 182.504 417.01 173.288 414.962 164.072H439.538ZM462.908 268.904C472.38 286.312 483.9 295.016 497.468 295.016C507.708 295.016 515.388 292.072 520.508 286.184C525.628 280.04 528.188 273 528.188 265.064C528.188 254.312 522.812 246.12 512.06 240.488L491.708 229.352C476.604 220.904 469.052 209.128 469.052 194.024C469.052 183.272 473.788 174.568 483.26 167.912C488.636 164.072 496.06 162.152 505.532 162.152C515.004 162.152 522.94 165.096 529.34 170.984V190.568H528.572C527.036 188.264 525.884 186.344 525.116 184.808C520.508 177.384 514.62 173.672 507.452 173.672C500.54 173.672 495.676 175.208 492.86 178.28C488.252 182.12 485.948 187.624 485.948 194.792C485.948 201.704 490.684 207.592 500.156 212.456L518.972 222.44C536.892 231.656 545.852 245.096 545.852 262.76C545.852 275.816 541.372 286.184 532.412 293.864C522.94 302.568 511.292 306.92 497.468 306.92C483.9 306.92 472.124 302.312 462.14 293.096V268.904H462.908ZM655.322 178.28C644.059 176.488 634.715 175.592 627.29 175.592H615.77C615.259 178.408 615.003 181.096 615.003 183.656V276.968C615.003 286.952 615.899 296.296 617.69 305H593.115C594.906 296.296 595.802 286.952 595.802 276.968V183.656C595.802 181.096 595.546 178.408 595.034 175.592H583.515C576.09 175.592 566.746 176.488 555.483 178.28V164.072H655.322V178.28ZM773.312 193.256C763.584 180.2 751.424 173.672 736.832 173.672C722.496 173.672 710.592 179.944 701.12 192.488C691.904 204.776 687.296 218.984 687.296 235.112C687.296 250.984 691.904 264.936 701.12 276.968C710.592 289 722.496 295.016 736.832 295.016C751.424 295.016 763.328 289 772.544 276.968C782.016 264.68 786.752 250.6 786.752 234.728C786.752 218.6 782.272 204.776 773.312 193.256ZM786.752 285.8C772.672 299.88 756.032 306.92 736.832 306.92C717.632 306.92 701.12 300.008 687.296 286.184C673.728 272.104 666.944 254.952 666.944 234.728C666.944 214.504 673.728 197.352 687.296 183.272C700.864 169.192 717.376 162.152 736.832 162.152C756.288 162.152 772.928 169.192 786.752 183.272C800.576 197.864 807.488 215.016 807.488 234.728C807.488 254.44 800.576 271.464 786.752 285.8ZM947.757 164.072C945.709 171.496 944.685 180.712 944.685 191.72V276.968C944.685 286.952 945.709 296.296 947.757 305H923.18C923.948 302.184 924.46 299.496 924.716 296.936C924.972 294.12 925.356 291.304 925.869 288.488C914.349 300.776 901.036 306.92 885.932 306.92C871.084 306.92 858.924 301.544 849.452 290.792C839.98 279.784 835.244 264.424 835.244 244.712V191.72C835.244 182.76 834.476 173.544 832.94 164.072H857.133C855.084 173.288 854.06 182.504 854.06 191.72V244.712C854.06 259.048 856.365 269.672 860.973 276.584C867.628 287.336 877.1 292.712 889.389 292.712C901.676 292.712 911.404 287.848 918.572 278.12C923.692 270.44 926.252 259.304 926.252 244.712V191.72C926.252 182.504 925.228 173.288 923.18 164.072H947.757Z" fill="black"/>
</g>
<defs>
<clipPath id="clip0_57_4">
<rect width="1122" height="468" rx="234" fill="white"/>
</clipPath>
</defs>
</svg>
